<svg xmlns="http://www.w3.org/2000/svg" width="33.614" height="24.202" viewBox="0 0 33.614 24.202">
  <g id="email-svgrepo-com" transform="translate(0)">
    <path id="Path_243" data-name="Path 243" d="M34.6,8.547a3.358,3.358,0,0,0-3.358-3.358H4.343A3.358,3.358,0,0,0,.985,8.547V26.033a3.358,3.358,0,0,0,3.358,3.358h26.9A3.358,3.358,0,0,0,34.6,26.033Zm-2.239,0V26.033a1.119,1.119,0,0,1-1.119,1.119H4.343a1.119,1.119,0,0,1-1.119-1.119V8.547A1.119,1.119,0,0,1,4.343,7.428h26.9A1.119,1.119,0,0,1,32.36,8.547Z" transform="translate(-0.985 -5.189)" fill="#5f078a"/>
    <path id="Path_244" data-name="Path 244" d="M2.961,8.689,17.08,16.533a1.126,1.126,0,0,0,1.088,0l14.12-7.844A1.119,1.119,0,1,0,31.2,6.732L17.625,14.274,4.049,6.732A1.119,1.119,0,0,0,2.961,8.689Z" transform="translate(-0.817 -5.022)" fill="#5f078a"/>
  </g>
</svg>
