<svg id="map-pin-svgrepo-com_1_" data-name="map-pin-svgrepo-com(1)" xmlns="http://www.w3.org/2000/svg" width="34.002" height="34.002" viewBox="0 0 34.002 34.002">
  <path id="Path_131" data-name="Path 131" d="M0,0H34V34H0Z" fill="none"/>
  <path id="Path_132" data-name="Path 132" d="M15.751,28.777l7.013-7.013a9.917,9.917,0,1,0-14.026,0Zm0,4.007L6.735,23.767a12.751,12.751,0,1,1,18.032,0Zm0-15.2a2.834,2.834,0,1,0-2.834-2.834A2.834,2.834,0,0,0,15.751,17.584Zm0,2.834a5.667,5.667,0,1,1,5.667-5.667A5.667,5.667,0,0,1,15.751,20.418Z" transform="translate(1.25 0.834)" fill="#5f078a"/>
</svg>
